<svg xmlns="http://www.w3.org/2000/svg" version="1.1" width="1080" height="1080" viewBox="0 0 1080 1080">
  <g transform="matrix(3.77 0 0 3.77 130.55 540)">
    <path
      style="stroke: rgb(133,133,133); stroke-width: 0; stroke-dasharray: none; stroke-linecap: butt; stroke-dashoffset: 0; stroke-linejoin: miter; stroke-miterlimit: 4; fill: rgb(133,133,133); fill-rule: nonzero; opacity: 1;"
      vector-effect="non-scaling-stroke" transform=" translate(-25.61, -100.39)"
      d="M 0.0240945 91.8181 L 0.0240945 108.8609 C 4.5518545 108.969325 8.2624045 110.43106 11.1255945 113.24409 C 13.9627245 116.02901 15.8661845 119.80582 16.8319745 124.54839 C 17.765635500000002 129.32713 18.2796545 137.52729 18.3097745 149.15289 C 18.3720186 160.81459 18.5507195 168.44459 18.8539085 172.15709 C 19.3920185 178.0763 20.3618185 182.78079000000002 21.8094985 186.31059000000002 C 23.257178500000002 189.84043000000003 25.0381585 192.65547 27.1524485 194.75972000000002 C 29.2928385 196.90011 32.0074885 198.50641000000002 35.2963885 199.61074000000002 C 37.5291485 200.39381100000003 41.1834785 200.78735000000003 46.247288499999996 200.78735000000003 L 51.200718499999994 200.78735000000003 L 51.200718499999994 184.38305000000003 L 48.453948499999996 184.38305000000003 C 42.3279285 184.38305000000003 38.2840485 183.06588000000002 36.262148499999995 180.46569000000002 C 34.270338499999994 177.85746000000003 33.27442849999999 171.97439000000003 33.27442849999999 162.84659000000002 C 33.27442849999999 145.44839000000002 33.003365499999994 134.39099000000002 32.459231499999994 129.72269000000003 C 31.523562499999993 122.02049000000002 29.626121499999993 115.81619000000003 26.819111499999995 111.17599000000003 C 23.979981499999994 106.57997000000003 19.968241499999994 102.97784000000003 14.779911499999995 100.37559000000003 C 21.568531499999995 96.56063000000003 26.335211499999996 91.49677000000003 29.112111499999997 85.18399000000004 C 31.8890015 78.87123000000004 33.2744315 68.24559000000004 33.2744315 53.27089000000004 C 33.2744315 39.687590000000036 33.3969115 31.589890000000036 33.696085499999995 28.915390000000038 C 34.121754499999994 24.24708000000004 35.2662455 21.00236000000004 37.19580549999999 19.145080000000036 C 39.099265499999994 17.325950000000034 42.87206549999999 16.398310000000034 48.45390549999999 16.398310000000034 L 51.20067549999999 16.398310000000034 L 51.20067549999999 0.00001000000003514856 L 46.24724549999999 0.00001000000003514856 C 40.48464549999999 0.00001000000003514856 36.292205499999994 0.5341040000000351 33.69604549999999 1.674580000000035 C 29.92324549999999 3.208600000000035 26.81907549999999 5.772650000000035 24.34537549999999 9.376780000000036 C 21.871675499999988 13.015050000000036 20.23927549999999 17.574930000000037 19.51643549999999 23.070480000000035 C 18.79159249999999 28.594140000000035 18.37194549999999 37.619580000000035 18.30970549999999 50.13058000000004 C 18.27958739999999 62.68378000000004 17.76557149999999 71.31368000000003 16.83190549999999 76.09238000000003 C 15.86611849999999 80.87112000000003 13.96265549999999 84.64994000000003 11.125525499999991 87.43288000000004 C 8.262295499999992 90.21178000000003 4.551745499999991 91.67351000000004 0.024025499999991595 91.81808000000004 z"
      stroke-linecap="round"/>
  </g>
  <g transform="matrix(3.77 0 0 3.77 949.28 540)">
    <path
      style="stroke: rgb(133,133,133); stroke-width: 0; stroke-dasharray: none; stroke-linecap: butt; stroke-dashoffset: 0; stroke-linejoin: miter; stroke-miterlimit: 4; fill: rgb(133,133,133); fill-rule: nonzero; opacity: 1;"
      vector-effect="non-scaling-stroke" transform=" translate(-25.61, -100.39)"
      d="M 51.2008 91.8181 L 51.2008 108.8609 C 46.67304 108.969325 42.96249 110.43106 40.0993 113.24409 C 37.26217 116.02901 35.35871 119.80582 34.39292 124.54839 C 33.459258999999996 129.32713 32.94524 137.52729 32.915119999999995 149.15289 C 32.852875899999994 160.81459 32.67417499999999 168.44459 32.370985999999995 172.15709 C 31.832875999999995 178.0763 30.863075999999996 182.78079000000002 29.415395999999994 186.31059000000002 C 27.967715999999996 189.84043000000003 26.186735999999993 192.65547 24.072445999999992 194.75972000000002 C 21.932055999999992 196.90011 19.217405999999993 198.50641000000002 15.928505999999992 199.61074000000002 C 13.695745999999993 200.39381100000003 10.041415999999991 200.78735000000003 4.977605999999991 200.78735000000003 L 0.02417599999999087 200.78735000000003 L 0.02417599999999087 184.38305000000003 L 2.770945999999991 184.38305000000003 C 8.89696599999999 184.38305000000003 12.940845999999992 183.06588000000002 14.962745999999992 180.46569000000002 C 16.954555999999993 177.85746000000003 17.95046599999999 171.97439000000003 17.95046599999999 162.84659000000002 C 17.95046599999999 145.44839000000002 18.221528999999993 134.39099000000002 18.765662999999993 129.72269000000003 C 19.701331999999994 122.02049000000002 21.598772999999994 115.81619000000003 24.405782999999992 111.17599000000003 C 27.244912999999993 106.57997000000003 31.256652999999993 102.97784000000003 36.44498299999999 100.37559000000003 C 29.656362999999992 96.56063000000003 24.88968299999999 91.49677000000003 22.112782999999993 85.18399000000004 C 19.33589299999999 78.87123000000004 17.950462999999992 68.24559000000004 17.950462999999992 53.27089000000004 C 17.950462999999992 39.687590000000036 17.827982999999993 31.589890000000036 17.528808999999992 28.915390000000038 C 17.103139999999993 24.24708000000004 15.958648999999992 21.00236000000004 14.029088999999992 19.145080000000036 C 12.125628999999993 17.325950000000034 8.352828999999993 16.398310000000034 2.7709889999999913 16.398310000000034 L 0.02421899999999111 16.398310000000034 L 0.02421899999999111 0.00001000000003514856 L 4.977648999999991 0.00001000000003514856 C 10.740248999999991 0.00001000000003514856 14.932688999999991 0.5341040000000351 17.52884899999999 1.674580000000035 C 21.30164899999999 3.208600000000035 24.40581899999999 5.772650000000035 26.879518999999988 9.376780000000036 C 29.35321899999999 13.015050000000036 30.985618999999986 17.574930000000037 31.708458999999987 23.070480000000035 C 32.43330199999999 28.594140000000035 32.85294899999999 37.619580000000035 32.915188999999984 50.13058000000004 C 32.94530709999999 62.68378000000004 33.45932299999998 71.31368000000003 34.392988999999986 76.09238000000003 C 35.358775999999985 80.87112000000003 37.26223899999999 84.64994000000003 40.09936899999999 87.43288000000004 C 42.96259899999999 90.21178000000003 46.67314899999999 91.67351000000004 51.20086899999999 91.81808000000004 z"
      stroke-linecap="round"/>
  </g>
  <g transform="matrix(0.99 0 0 0.99 540 540)">

    <g transform="matrix(25 0 0 25 -225.43 0.71)">
      <path
        style="stroke: rgb(0,0,0); stroke-width: 0.00032; stroke-dasharray: none; stroke-linecap: butt; stroke-dashoffset: 0; stroke-linejoin: miter; stroke-miterlimit: 4; fill: rgb(133,133,133); fill-rule: nonzero; opacity: 1;"
        vector-effect="non-scaling-stroke" transform=" translate(-6.98, -16.03)"
        d="M 9.966 13.338 C 9.605294765228 13.105341895383003 9.179308898702036 12.994901115172567 8.751 13.023 C 8.065184936019781 13.020716753301167 7.420920443534706 13.35142427924692 7.023 13.91 C 6.526953139934879 14.613766099355098 6.28279188201461 15.46427876402974 6.33 16.323999999999998 L 6.33 21 L 4 21 L 4 11.229 L 6.33 11.229 L 6.33 13.241999999999999 L 6.37 13.241999999999999 C 6.557702106927792 12.616283511440276 6.922349723565556 12.058199016262288 7.419999999999998 11.635000000000002 C 7.861488607214506 11.261113264715934 8.42146483659357 11.056261201057012 8.999999999999998 11.057 C 9.331332732234012 11.038671858186145 9.662156890274824 11.101130361052773 9.964 11.239 Z"
        stroke-linecap="round"/>
    </g>
    <g transform="matrix(25 0 0 25 107.77 0)">
      <path
        style="stroke: rgb(0,0,0); stroke-width: 0.00032; stroke-dasharray: none; stroke-linecap: butt; stroke-dashoffset: 0; stroke-linejoin: miter; stroke-miterlimit: 4; fill: rgb(133,133,133); fill-rule: nonzero; opacity: 1;"
        vector-effect="non-scaling-stroke" transform=" translate(-20.31, -16)"
        d="M 28 21 L 25.67 21 L 25.67 15.676 C 25.727790078728642 14.906571259269818 25.56950961945097 14.136296113901011 25.213 13.452000000000002 C 24.85522080542515 12.968209206147844 24.26995619182067 12.70745901837464 23.671 12.765 C 23.040592056525657 12.775775178252962 22.457658997552567 13.102172619134157 22.119 13.634 C 21.685324432754147 14.239269864791888 21.461290398747384 14.969662953716757 21.480999999999998 15.714 L 21.480999999999998 21 L 19.141 21 L 19.141 15.494 Q 19.141 12.766 17.112 12.765 C 16.489704025776756 12.761012160327457 15.906869836693573 13.069328442052518 15.559999999999999 13.586 C 15.131502466538004 14.210430499635224 14.91806915064144 14.957447105273191 14.951999999999998 15.714000000000002 L 14.951999999999998 21 L 12.621999999999998 21 L 12.621999999999998 11.229 L 14.951999999999998 11.229 L 14.951999999999998 12.774999999999999 L 14.991999999999997 12.774999999999999 C 15.66379169741412 11.630418847398612 16.9108416387688 10.948288293961152 18.237 11 C 18.90113472572773 10.98614369826893 19.552832085662153 11.181338076606776 20.099999999999998 11.558 C 20.617867377095084 11.909731262944128 21.001913219681512 12.425902968805705 21.189999999999998 13.023 C 21.83820718443831 11.742071748754102 23.170167551189873 10.953036368977116 24.605 11 Q 28 11 28 14.979 Z"
        stroke-linecap="round"/>
    </g>
  </g>
</svg>
