<svg width="50" height="50" viewBox="0 0 50 50" fill="none" xmlns="http://www.w3.org/2000/svg">
<path d="M40 40L43 37L40 34M31 34L28 37L31 40M37.375 31L33.625 43" stroke="#858585" stroke-width="2" stroke-linecap="round" stroke-linejoin="round"/>
<path d="M27 12L35.75 12C37.1424 12 38.4777 12.5136 39.4623 13.4279C40.4469 14.3421 41 15.5821 41 16.875V25" stroke="#858585" stroke-width="2.5" stroke-linecap="round" stroke-linejoin="round"/>
<path d="M23 38H14.25C12.8576 38 11.5223 37.4864 10.5377 36.5721C9.55312 35.6579 9 34.4179 9 33.125V25" stroke="#858585" stroke-width="2.5" stroke-linecap="round" stroke-linejoin="round"/>
<path d="M21.9445 19.974L18.931 12.6391C18.8754 12.5036 18.781 12.3878 18.6598 12.3063C18.5386 12.2249 18.396 12.1814 18.2502 12.1814C18.1043 12.1814 17.9618 12.2249 17.8406 12.3063C17.7194 12.3878 17.6249 12.5036 17.5693 12.6391L14.5558 19.974C14.5183 20.0639 14.4989 20.1604 14.4987 20.2579C14.4984 20.3554 14.5174 20.452 14.5544 20.5422C14.5914 20.6323 14.6458 20.7142 14.7144 20.7832C14.783 20.8521 14.8645 20.9068 14.9542 20.944C15.0439 20.9812 15.14 21.0002 15.2371 21C15.3341 20.9998 15.4302 20.9803 15.5197 20.9426C15.6092 20.905 15.6904 20.8499 15.7587 20.7806C15.827 20.7114 15.881 20.6292 15.9176 20.5389L16.5313 19.0453H19.969L20.5828 20.5389C20.6384 20.6744 20.7328 20.7903 20.8541 20.8718C20.9753 20.9533 21.1179 20.9968 21.2638 20.9968C21.3849 20.9967 21.504 20.9667 21.6108 20.9093C21.7175 20.852 21.8085 20.769 21.8758 20.6679C21.9431 20.5668 21.9845 20.4506 21.9964 20.3295C22.0083 20.2085 21.9904 20.0864 21.9442 19.974H21.9445ZM17.1397 17.5649L18.2503 14.8614L19.361 17.5649H17.1397ZM14.8967 16.9229C15.0111 16.7641 15.0581 16.5661 15.0274 16.3724C14.9967 16.1788 14.8908 16.0052 14.7329 15.89C14.7262 15.8849 14.2307 15.5155 13.5111 14.7215C14.8387 12.9153 15.5908 10.8606 15.8975 9.89357H16.978C17.1733 9.89357 17.3607 9.81558 17.4988 9.67676C17.637 9.53795 17.7146 9.34967 17.7146 9.15335C17.7146 8.95704 17.637 8.76876 17.4988 8.62994C17.3607 8.49112 17.1733 8.41314 16.978 8.41314H13.0939V7.74022C13.0939 7.5439 13.0163 7.35562 12.8782 7.2168C12.74 7.07799 12.5527 7 12.3573 7C12.1619 7 11.9746 7.07799 11.8364 7.2168C11.6983 7.35562 11.6207 7.5439 11.6207 7.74022V8.41314H7.73663C7.54126 8.41314 7.3539 8.49112 7.21575 8.62994C7.07761 8.76876 7 8.95704 7 9.15335C7 9.34967 7.07761 9.53795 7.21575 9.67676C7.3539 9.81558 7.54126 9.89357 7.73663 9.89357H14.3412C14.0224 10.8003 13.4355 12.232 12.5401 13.5395C11.4884 12.1371 11.0977 11.2297 11.0947 11.2223C11.0177 11.0435 10.8736 10.9024 10.6938 10.8296C10.5139 10.7568 10.3128 10.7582 10.134 10.8335C9.95515 10.9088 9.81308 11.0518 9.73856 11.2317C9.66404 11.4116 9.66309 11.6137 9.73591 11.7942C9.75533 11.8407 10.2231 12.9459 11.5058 14.6182C11.5366 14.6582 11.5671 14.6972 11.5976 14.7363C10.2837 16.2285 8.99459 17.1541 8.45518 17.4528C8.28365 17.5469 8.15632 17.7055 8.10119 17.8938C8.04606 18.0822 8.06764 18.2848 8.16119 18.4572C8.25475 18.6295 8.41261 18.7575 8.60005 18.8129C8.78748 18.8683 8.98914 18.8466 9.16067 18.7526C9.23299 18.7129 10.7879 17.8479 12.5636 15.8728C13.3176 16.683 13.8359 17.0652 13.8671 17.0875C13.9454 17.1446 14.0342 17.1857 14.1284 17.2084C14.2226 17.2311 14.3202 17.2349 14.4159 17.2195C14.5115 17.2042 14.6032 17.1701 14.6857 17.1192C14.7682 17.0682 14.8399 17.0014 14.8967 16.9226V16.9229Z" fill="#858585"/>
</svg>
